<svg xmlns="http://www.w3.org/2000/svg" viewBox="0 0 240 180" width="240" height="180" role="img" aria-hidden="true"><ellipse cx="120" cy="90" rx="104" ry="78" fill="#E3ECEB" opacity=".55"/><ellipse cx="120" cy="162" rx="70" ry="7" fill="#CFE0DE"/><rect x="58" y="34" width="124" height="100" rx="12" fill="#FFFFFF" stroke="#0B3B3C" stroke-width="3"/><circle cx="80" cy="58" r="9" fill="#F4B63F"/><rect x="96" y="52" width="60" height="7" rx="3.5" fill="#0B3B3C"/><rect x="96" y="63" width="40" height="7" rx="3.5" fill="#CFE0DE"/><circle cx="80" cy="86" r="9" fill="#CFE0DE"/><rect x="96" y="80" width="56" height="7" rx="3.5" fill="#CFE0DE"/><rect x="96" y="91" width="34" height="7" rx="3.5" fill="#CFE0DE"/><circle cx="80" cy="114" r="9" fill="#CFE0DE"/><rect x="96" y="108" width="64" height="7" rx="3.5" fill="#CFE0DE"/><path d="M30 150C60 160 100 148 150 150S200 120 196 50" fill="none" stroke="#0B3B3C" stroke-width="3" stroke-linecap="round" stroke-dasharray="1 9"/><circle cx="196" cy="44" r="9" fill="#F4B63F" stroke="#0B3B3C" stroke-width="3"/></svg>
